<mxfile host="Electron" modified="2024-10-13T20:55:23.303Z" agent="Mozilla/5.0 (Macintosh; Intel Mac OS X 10_15_7) AppleWebKit/537.36 (KHTML, like Gecko) draw.io/21.6.8 Chrome/114.0.5735.289 Electron/25.5.0 Safari/537.36" etag="7U8UsWqNBV5pjw8-Hl2K" version="21.6.8" type="device">
  <diagram name="Page-1" id="opIVWp4-gEHSWNYy1AJb">
    <mxGraphModel dx="1194" dy="765" grid="1" gridSize="10" guides="1" tooltips="1" connect="1" arrows="1" fold="1" page="1" pageScale="1" pageWidth="827" pageHeight="1169" math="0" shadow="0">
      <root>
        <mxCell id="0" />
        <mxCell id="1" parent="0" />
        <mxCell id="AEvITdS31vf8nM3Foq16-5" value="BaseModel" style="swimlane;fontStyle=1;align=center;verticalAlign=top;childLayout=stackLayout;horizontal=1;startSize=26;horizontalStack=0;resizeParent=1;resizeParentMax=0;resizeLast=0;collapsible=1;marginBottom=0;whiteSpace=wrap;html=1;rounded=1;strokeColor=default;strokeWidth=2;fontFamily=Helvetica;fontSize=14;fontColor=default;fillColor=none;" vertex="1" parent="1">
          <mxGeometry x="260" y="160" width="160" height="164" as="geometry" />
        </mxCell>
        <mxCell id="AEvITdS31vf8nM3Foq16-6" value="+ name: type" style="text;strokeColor=none;fillColor=none;align=left;verticalAlign=top;spacingLeft=4;spacingRight=4;overflow=hidden;rotatable=0;points=[[0,0.5],[1,0.5]];portConstraint=eastwest;whiteSpace=wrap;html=1;fontSize=14;fontFamily=Helvetica;fontColor=default;" vertex="1" parent="AEvITdS31vf8nM3Foq16-5">
          <mxGeometry y="26" width="160" height="26" as="geometry" />
        </mxCell>
        <mxCell id="AEvITdS31vf8nM3Foq16-7" value="" style="line;strokeWidth=1;fillColor=none;align=left;verticalAlign=middle;spacingTop=-1;spacingLeft=3;spacingRight=3;rotatable=0;labelPosition=right;points=[];portConstraint=eastwest;strokeColor=inherit;rounded=1;fontFamily=Helvetica;fontSize=14;fontColor=default;startSize=26;html=1;" vertex="1" parent="AEvITdS31vf8nM3Foq16-5">
          <mxGeometry y="52" width="160" height="8" as="geometry" />
        </mxCell>
        <mxCell id="AEvITdS31vf8nM3Foq16-8" value="+ create(type): type" style="text;strokeColor=none;fillColor=none;align=left;verticalAlign=top;spacingLeft=4;spacingRight=4;overflow=hidden;rotatable=0;points=[[0,0.5],[1,0.5]];portConstraint=eastwest;whiteSpace=wrap;html=1;fontSize=14;fontFamily=Helvetica;fontColor=default;" vertex="1" parent="AEvITdS31vf8nM3Foq16-5">
          <mxGeometry y="60" width="160" height="26" as="geometry" />
        </mxCell>
        <mxCell id="AEvITdS31vf8nM3Foq16-9" value="+ read(type): type" style="text;strokeColor=none;fillColor=none;align=left;verticalAlign=top;spacingLeft=4;spacingRight=4;overflow=hidden;rotatable=0;points=[[0,0.5],[1,0.5]];portConstraint=eastwest;whiteSpace=wrap;html=1;fontSize=14;fontFamily=Helvetica;fontColor=default;" vertex="1" parent="AEvITdS31vf8nM3Foq16-5">
          <mxGeometry y="86" width="160" height="26" as="geometry" />
        </mxCell>
        <mxCell id="AEvITdS31vf8nM3Foq16-10" value="+ update(type): type" style="text;strokeColor=none;fillColor=none;align=left;verticalAlign=top;spacingLeft=4;spacingRight=4;overflow=hidden;rotatable=0;points=[[0,0.5],[1,0.5]];portConstraint=eastwest;whiteSpace=wrap;html=1;fontSize=14;fontFamily=Helvetica;fontColor=default;" vertex="1" parent="AEvITdS31vf8nM3Foq16-5">
          <mxGeometry y="112" width="160" height="26" as="geometry" />
        </mxCell>
        <mxCell id="AEvITdS31vf8nM3Foq16-11" value="+ delete(type): type" style="text;strokeColor=none;fillColor=none;align=left;verticalAlign=top;spacingLeft=4;spacingRight=4;overflow=hidden;rotatable=0;points=[[0,0.5],[1,0.5]];portConstraint=eastwest;whiteSpace=wrap;html=1;fontSize=14;fontFamily=Helvetica;fontColor=default;" vertex="1" parent="AEvITdS31vf8nM3Foq16-5">
          <mxGeometry y="138" width="160" height="26" as="geometry" />
        </mxCell>
        <mxCell id="AEvITdS31vf8nM3Foq16-19" style="edgeStyle=orthogonalEdgeStyle;rounded=0;orthogonalLoop=1;jettySize=auto;html=1;fontFamily=Helvetica;fontSize=14;fontColor=default;startSize=26;strokeWidth=2;endArrow=block;endFill=0;" edge="1" parent="1" source="AEvITdS31vf8nM3Foq16-12" target="AEvITdS31vf8nM3Foq16-5">
          <mxGeometry relative="1" as="geometry" />
        </mxCell>
        <mxCell id="AEvITdS31vf8nM3Foq16-12" value="LevelXModel" style="swimlane;fontStyle=1;align=center;verticalAlign=top;childLayout=stackLayout;horizontal=1;startSize=26;horizontalStack=0;resizeParent=1;resizeParentMax=0;resizeLast=0;collapsible=1;marginBottom=0;whiteSpace=wrap;html=1;rounded=1;strokeColor=default;strokeWidth=2;fontFamily=Helvetica;fontSize=14;fontColor=default;fillColor=none;" vertex="1" parent="1">
          <mxGeometry x="260" y="400" width="160" height="80" as="geometry" />
        </mxCell>
        <mxCell id="AEvITdS31vf8nM3Foq16-14" value="" style="line;strokeWidth=1;fillColor=none;align=left;verticalAlign=middle;spacingTop=-1;spacingLeft=3;spacingRight=3;rotatable=0;labelPosition=right;points=[];portConstraint=eastwest;strokeColor=inherit;rounded=1;fontFamily=Helvetica;fontSize=14;fontColor=default;startSize=26;html=1;" vertex="1" parent="AEvITdS31vf8nM3Foq16-12">
          <mxGeometry y="26" width="160" height="8" as="geometry" />
        </mxCell>
        <mxCell id="AEvITdS31vf8nM3Foq16-15" value="+ getView(type): viewProps" style="text;strokeColor=none;fillColor=none;align=left;verticalAlign=top;spacingLeft=4;spacingRight=4;overflow=hidden;rotatable=0;points=[[0,0.5],[1,0.5]];portConstraint=eastwest;whiteSpace=wrap;html=1;fontSize=14;fontFamily=Helvetica;fontColor=default;" vertex="1" parent="AEvITdS31vf8nM3Foq16-12">
          <mxGeometry y="34" width="160" height="46" as="geometry" />
        </mxCell>
        <mxCell id="AEvITdS31vf8nM3Foq16-27" style="edgeStyle=orthogonalEdgeStyle;rounded=0;orthogonalLoop=1;jettySize=auto;html=1;fontFamily=Helvetica;fontSize=14;fontColor=default;startSize=26;strokeWidth=2;endArrow=block;endFill=0;" edge="1" parent="1" source="AEvITdS31vf8nM3Foq16-20" target="AEvITdS31vf8nM3Foq16-12">
          <mxGeometry relative="1" as="geometry" />
        </mxCell>
        <mxCell id="AEvITdS31vf8nM3Foq16-41" style="edgeStyle=orthogonalEdgeStyle;shape=connector;rounded=0;orthogonalLoop=1;jettySize=auto;html=1;labelBackgroundColor=default;strokeColor=default;strokeWidth=2;fontFamily=Helvetica;fontSize=14;fontColor=default;endArrow=open;startSize=26;dashed=1;endFill=0;" edge="1" parent="1" source="AEvITdS31vf8nM3Foq16-20" target="AEvITdS31vf8nM3Foq16-36">
          <mxGeometry relative="1" as="geometry" />
        </mxCell>
        <mxCell id="AEvITdS31vf8nM3Foq16-20" value="XModel" style="swimlane;fontStyle=1;align=center;verticalAlign=top;childLayout=stackLayout;horizontal=1;startSize=26;horizontalStack=0;resizeParent=1;resizeParentMax=0;resizeLast=0;collapsible=1;marginBottom=0;whiteSpace=wrap;html=1;rounded=1;strokeColor=default;strokeWidth=2;fontFamily=Helvetica;fontSize=14;fontColor=default;fillColor=none;" vertex="1" parent="1">
          <mxGeometry x="260" y="520" width="160" height="34" as="geometry" />
        </mxCell>
        <mxCell id="AEvITdS31vf8nM3Foq16-22" value="" style="line;strokeWidth=1;fillColor=none;align=left;verticalAlign=middle;spacingTop=-1;spacingLeft=3;spacingRight=3;rotatable=0;labelPosition=right;points=[];portConstraint=eastwest;strokeColor=inherit;rounded=1;fontFamily=Helvetica;fontSize=14;fontColor=default;startSize=26;html=1;" vertex="1" parent="AEvITdS31vf8nM3Foq16-20">
          <mxGeometry y="26" width="160" height="8" as="geometry" />
        </mxCell>
        <mxCell id="AEvITdS31vf8nM3Foq16-42" style="edgeStyle=orthogonalEdgeStyle;shape=connector;rounded=0;orthogonalLoop=1;jettySize=auto;html=1;labelBackgroundColor=default;strokeColor=default;strokeWidth=2;fontFamily=Helvetica;fontSize=14;fontColor=default;endArrow=open;startSize=26;dashed=1;endFill=0;" edge="1" parent="1" source="AEvITdS31vf8nM3Foq16-28" target="AEvITdS31vf8nM3Foq16-36">
          <mxGeometry relative="1" as="geometry" />
        </mxCell>
        <mxCell id="AEvITdS31vf8nM3Foq16-28" value="Actions" style="swimlane;fontStyle=1;childLayout=stackLayout;horizontal=1;startSize=26;fillColor=none;horizontalStack=0;resizeParent=1;resizeParentMax=0;resizeLast=0;collapsible=1;marginBottom=0;whiteSpace=wrap;html=1;rounded=1;strokeColor=default;strokeWidth=2;fontFamily=Helvetica;fontSize=14;fontColor=default;" vertex="1" parent="1">
          <mxGeometry x="660" y="68" width="140" height="104" as="geometry" />
        </mxCell>
        <mxCell id="AEvITdS31vf8nM3Foq16-29" value="+ field: type" style="text;strokeColor=none;fillColor=none;align=left;verticalAlign=top;spacingLeft=4;spacingRight=4;overflow=hidden;rotatable=0;points=[[0,0.5],[1,0.5]];portConstraint=eastwest;whiteSpace=wrap;html=1;fontSize=14;fontFamily=Helvetica;fontColor=default;" vertex="1" parent="AEvITdS31vf8nM3Foq16-28">
          <mxGeometry y="26" width="140" height="26" as="geometry" />
        </mxCell>
        <mxCell id="AEvITdS31vf8nM3Foq16-30" value="+ field: type" style="text;strokeColor=none;fillColor=none;align=left;verticalAlign=top;spacingLeft=4;spacingRight=4;overflow=hidden;rotatable=0;points=[[0,0.5],[1,0.5]];portConstraint=eastwest;whiteSpace=wrap;html=1;fontSize=14;fontFamily=Helvetica;fontColor=default;" vertex="1" parent="AEvITdS31vf8nM3Foq16-28">
          <mxGeometry y="52" width="140" height="26" as="geometry" />
        </mxCell>
        <mxCell id="AEvITdS31vf8nM3Foq16-31" value="+ field: type" style="text;strokeColor=none;fillColor=none;align=left;verticalAlign=top;spacingLeft=4;spacingRight=4;overflow=hidden;rotatable=0;points=[[0,0.5],[1,0.5]];portConstraint=eastwest;whiteSpace=wrap;html=1;fontSize=14;fontFamily=Helvetica;fontColor=default;" vertex="1" parent="AEvITdS31vf8nM3Foq16-28">
          <mxGeometry y="78" width="140" height="26" as="geometry" />
        </mxCell>
        <mxCell id="AEvITdS31vf8nM3Foq16-40" style="edgeStyle=orthogonalEdgeStyle;shape=connector;rounded=0;orthogonalLoop=1;jettySize=auto;html=1;entryX=0.5;entryY=0;entryDx=0;entryDy=0;labelBackgroundColor=default;strokeColor=default;strokeWidth=2;fontFamily=Helvetica;fontSize=14;fontColor=default;endArrow=open;startSize=26;endFill=0;" edge="1" parent="1" source="AEvITdS31vf8nM3Foq16-36" target="AEvITdS31vf8nM3Foq16-5">
          <mxGeometry relative="1" as="geometry" />
        </mxCell>
        <mxCell id="AEvITdS31vf8nM3Foq16-36" value="ModelFactory" style="swimlane;fontStyle=1;align=center;verticalAlign=top;childLayout=stackLayout;horizontal=1;startSize=26;horizontalStack=0;resizeParent=1;resizeParentMax=0;resizeLast=0;collapsible=1;marginBottom=0;whiteSpace=wrap;html=1;rounded=1;strokeColor=default;strokeWidth=2;fontFamily=Helvetica;fontSize=14;fontColor=default;fillColor=none;" vertex="1" parent="1">
          <mxGeometry x="460" y="80" width="160" height="80" as="geometry" />
        </mxCell>
        <mxCell id="AEvITdS31vf8nM3Foq16-38" value="" style="line;strokeWidth=1;fillColor=none;align=left;verticalAlign=middle;spacingTop=-1;spacingLeft=3;spacingRight=3;rotatable=0;labelPosition=right;points=[];portConstraint=eastwest;strokeColor=inherit;rounded=1;fontFamily=Helvetica;fontSize=14;fontColor=default;startSize=26;html=1;" vertex="1" parent="AEvITdS31vf8nM3Foq16-36">
          <mxGeometry y="26" width="160" height="8" as="geometry" />
        </mxCell>
        <mxCell id="AEvITdS31vf8nM3Foq16-39" value="+ generate(slug: Slug): BaseModel" style="text;strokeColor=none;fillColor=none;align=left;verticalAlign=top;spacingLeft=4;spacingRight=4;overflow=hidden;rotatable=0;points=[[0,0.5],[1,0.5]];portConstraint=eastwest;whiteSpace=wrap;html=1;fontSize=14;fontFamily=Helvetica;fontColor=default;" vertex="1" parent="AEvITdS31vf8nM3Foq16-36">
          <mxGeometry y="34" width="160" height="46" as="geometry" />
        </mxCell>
        <mxCell id="AEvITdS31vf8nM3Foq16-54" style="edgeStyle=orthogonalEdgeStyle;shape=connector;rounded=0;orthogonalLoop=1;jettySize=auto;html=1;entryX=0;entryY=0.5;entryDx=0;entryDy=0;labelBackgroundColor=default;strokeColor=default;strokeWidth=2;fontFamily=Helvetica;fontSize=14;fontColor=default;endArrow=open;startSize=26;endFill=0;" edge="1" parent="1" source="AEvITdS31vf8nM3Foq16-43" target="AEvITdS31vf8nM3Foq16-12">
          <mxGeometry relative="1" as="geometry" />
        </mxCell>
        <mxCell id="AEvITdS31vf8nM3Foq16-43" value="ViewComponent" style="swimlane;fontStyle=1;childLayout=stackLayout;horizontal=1;startSize=26;fillColor=none;horizontalStack=0;resizeParent=1;resizeParentMax=0;resizeLast=0;collapsible=1;marginBottom=0;whiteSpace=wrap;html=1;rounded=1;strokeColor=default;strokeWidth=2;fontFamily=Helvetica;fontSize=14;fontColor=default;" vertex="1" parent="1">
          <mxGeometry x="40" y="80" width="140" height="104" as="geometry" />
        </mxCell>
        <mxCell id="AEvITdS31vf8nM3Foq16-44" value="+ field: type" style="text;strokeColor=none;fillColor=none;align=left;verticalAlign=top;spacingLeft=4;spacingRight=4;overflow=hidden;rotatable=0;points=[[0,0.5],[1,0.5]];portConstraint=eastwest;whiteSpace=wrap;html=1;fontSize=14;fontFamily=Helvetica;fontColor=default;" vertex="1" parent="AEvITdS31vf8nM3Foq16-43">
          <mxGeometry y="26" width="140" height="26" as="geometry" />
        </mxCell>
        <mxCell id="AEvITdS31vf8nM3Foq16-45" value="+ field: type" style="text;strokeColor=none;fillColor=none;align=left;verticalAlign=top;spacingLeft=4;spacingRight=4;overflow=hidden;rotatable=0;points=[[0,0.5],[1,0.5]];portConstraint=eastwest;whiteSpace=wrap;html=1;fontSize=14;fontFamily=Helvetica;fontColor=default;" vertex="1" parent="AEvITdS31vf8nM3Foq16-43">
          <mxGeometry y="52" width="140" height="26" as="geometry" />
        </mxCell>
        <mxCell id="AEvITdS31vf8nM3Foq16-46" value="+ field: type" style="text;strokeColor=none;fillColor=none;align=left;verticalAlign=top;spacingLeft=4;spacingRight=4;overflow=hidden;rotatable=0;points=[[0,0.5],[1,0.5]];portConstraint=eastwest;whiteSpace=wrap;html=1;fontSize=14;fontFamily=Helvetica;fontColor=default;" vertex="1" parent="AEvITdS31vf8nM3Foq16-43">
          <mxGeometry y="78" width="140" height="26" as="geometry" />
        </mxCell>
      </root>
    </mxGraphModel>
  </diagram>
</mxfile>
